<svg width="34" height="38" viewBox="0 0 34 38" fill="none" xmlns="http://www.w3.org/2000/svg">
<path d="M0.175136 24.2797C0.175381 19.4341 0.179122 14.6155 0.166752 9.79698C0.166047 9.5224 0.264014 9.38231 0.483694 9.25898C2.27624 8.25265 4.06644 7.24233 5.85677 6.23223C7.50733 5.30098 9.15615 4.36679 10.8076 3.43707C12.1944 2.65636 13.584 1.88035 14.9722 1.10201C15.6107 0.744004 16.2472 0.382337 16.8899 0.0316529C16.9575 -0.00522674 17.08 -0.012174 17.1453 0.0230494C18.0736 0.52335 19.001 1.0255 19.9191 1.54341C20.6756 1.9702 21.4148 2.42614 22.1704 2.85459C22.7215 3.16706 23.2928 3.44529 23.8439 3.75772C24.5971 4.18476 25.3352 4.63735 26.0883 5.06454C26.6395 5.37717 27.2094 5.65819 27.7621 5.96834C28.4943 6.37925 29.2152 6.80936 29.946 7.22265C30.5216 7.54812 31.1075 7.85616 31.6837 8.18045C32.0737 8.39991 32.4527 8.63791 32.8408 8.86062C33.1956 9.06418 33.556 9.25834 33.9384 9.47022C33.9384 9.60596 33.9384 9.78523 33.9384 9.96451C33.9384 16.062 33.9369 22.1595 33.9445 28.257C33.9448 28.4788 33.8613 28.5827 33.678 28.6852C32.5173 29.3341 31.3647 29.9967 30.2065 30.6499C28.9537 31.3566 27.6964 32.0556 26.4436 32.7623C25.0753 33.5341 23.711 34.3127 22.3428 35.0847C21.0902 35.7913 19.8345 36.4927 18.5804 37.1969C18.1496 37.4389 17.7171 37.678 17.2909 37.9275C17.1321 38.0204 16.9965 38.0259 16.8338 37.9329C15.4692 37.1526 14.1025 36.3758 12.7338 35.6023C11.7328 35.0365 10.7262 34.48 9.72511 33.9143C8.70829 33.3396 7.6971 32.7555 6.67982 32.1816C5.92093 31.7535 5.15369 31.3395 4.39485 30.9114C3.36998 30.3331 2.351 29.7448 1.32655 29.1658C0.955319 28.956 0.575615 28.7604 0.175137 28.5451C0.175137 27.1507 0.175137 25.7287 0.175136 24.2797ZM32.0751 27.4487C32.0867 27.3523 32.1079 27.2559 32.1083 27.1594C32.1113 26.521 32.1099 25.8825 32.1099 25.244C32.1099 20.4417 32.1104 15.6395 32.1064 10.8373C32.1063 10.7235 32.0548 10.6098 31.9897 10.4984C31.2696 10.0932 30.5498 9.68758 29.8293 9.28293C28.9286 8.77696 28.0264 8.27337 27.1266 7.76581C26.2344 7.26256 25.3447 6.75494 24.4532 6.25055C23.5464 5.73752 22.639 5.22547 21.7312 4.71412C20.8384 4.21122 19.9444 3.71023 19.0515 3.20749C18.3865 2.83306 17.7224 2.45717 17.0596 2.08291C16.2734 2.52715 15.4831 2.97406 14.6925 3.42038C14.0124 3.80429 13.3316 4.18704 12.6517 4.57116C11.9079 4.99133 11.1659 5.41476 10.4207 5.83257C9.65238 6.26337 8.8788 6.68532 8.11159 7.11804C7.21192 7.62547 6.31719 8.14124 5.4193 8.65167C4.72434 9.04673 4.02983 9.44265 3.33119 9.83142C2.91582 10.0626 2.49283 10.2806 2.032 10.5262C2.02376 10.6239 2.00864 10.7215 2.00836 10.8192C2.00636 11.5303 2.00739 12.2414 2.00739 12.9525C2.00735 17.6783 2.00672 22.404 2.01074 27.1298C2.01083 27.2435 2.06264 27.3572 2.11657 27.4944C2.37714 27.6467 2.63583 27.8022 2.89862 27.9508C3.73154 28.4217 4.56624 28.8896 5.39978 29.3595C6.35652 29.8988 7.31262 30.4392 8.26928 30.9786C9.10174 31.448 9.93478 31.9165 10.7672 32.3859C11.7238 32.9253 12.6802 33.4649 13.6363 34.0052C14.71 34.6119 15.7818 35.2218 16.8596 35.8216C16.9363 35.8642 17.0652 35.8623 17.1522 35.8323C17.2938 35.7835 17.4223 35.6967 17.5541 35.6221C18.6425 35.0068 19.7299 34.3896 20.8187 33.7748C21.9934 33.1115 23.1693 32.45 24.3448 31.788C25.4426 31.1697 26.5415 30.5532 27.6382 29.9331C28.3848 29.511 29.1262 29.0802 29.8742 28.6605C30.5901 28.2587 31.3115 27.8663 32.0751 27.4487Z" fill="#7C3AED"/>
<path d="M31.1151 26.9423C30.7004 27.1878 30.2889 27.4388 29.8703 27.6776C28.9659 28.1935 28.0586 28.7045 27.1511 29.215C26.3758 29.6511 25.5968 30.0812 24.8224 30.5187C23.6658 31.1721 22.5133 31.8325 21.3562 32.4849C20.2451 33.1114 19.1301 33.7313 18.0171 34.3547C17.9153 34.4117 17.8182 34.4771 17.7146 34.5305C16.9919 34.9026 16.9991 34.8895 16.3022 34.4838C15.2931 33.8964 14.2715 33.3294 13.2555 32.7533C12.108 32.1025 10.9621 31.4491 9.81316 30.8008C8.82002 30.2404 7.82185 29.6885 6.82911 29.1275C5.80447 28.5483 4.78415 27.9619 3.76092 27.3804C3.51999 27.2435 3.27497 27.1135 3.01889 26.9413C3.0057 21.8812 3.00555 16.86 3.00489 11.8389C3.00485 11.569 3.00059 11.2991 2.99829 11.0293C4.34959 10.2638 5.70147 9.49927 7.05202 8.73252C8.63719 7.83258 10.2186 6.9263 11.8065 6.0309C13.3164 5.17942 14.8327 4.33862 16.3458 3.49232C16.439 3.44017 16.5389 3.3926 16.6173 3.32313C16.9314 3.04486 17.226 3.18349 17.519 3.35355C17.9522 3.60494 18.3796 3.86568 18.8151 4.11313C19.5762 4.54569 20.3404 4.97331 21.1056 5.3989C21.6753 5.7157 22.2521 6.02031 22.8197 6.34069C23.558 6.75746 24.2875 7.18901 25.0259 7.60563C25.6013 7.93032 26.1889 8.23463 26.7632 8.56115C27.5087 8.98502 28.2427 9.42839 28.9889 9.85111C29.5485 10.1682 30.1198 10.4657 30.6856 10.7723C30.8178 10.8439 30.9492 10.9168 31.0961 11.0268C31.1115 11.6044 31.1118 12.1445 31.1119 12.6846C31.113 17.4372 31.1141 22.1897 31.1151 26.9423ZM30.0597 11.579C30.0597 11.579 30.0577 11.5845 30.0513 11.549C30.0289 11.5399 30.0065 11.5309 29.9462 11.525C29.5039 11.2846 29.0579 11.0502 28.6199 10.8025C27.3926 10.1083 26.1703 9.40544 24.9427 8.71177C23.7929 8.06215 22.637 7.42299 21.4871 6.77364C20.0479 5.96091 18.6129 5.14113 17.172 4.33134C17.1125 4.29791 16.9974 4.3097 16.9321 4.34391C16.6615 4.4856 16.4018 4.64675 16.1351 4.7958C15.2326 5.30033 14.3268 5.79909 13.4263 6.307C12.5347 6.80992 11.6506 7.32567 10.7585 7.82774C9.73248 8.40518 8.69914 8.97022 7.67281 9.54715C6.47461 10.2207 5.28056 10.9012 4.03451 11.5799C4.02264 11.6074 4.01077 11.6348 3.99823 11.6598C3.99823 11.6598 4.00043 11.6587 3.96573 11.6954C3.95855 11.7755 3.94509 11.8557 3.94507 11.9358C3.94406 16.6326 3.94385 21.3293 3.94647 26.0261C3.94652 26.12 3.98098 26.2139 3.99875 26.3066C3.99875 26.3066 3.99819 26.3055 3.99341 26.347C4.0158 26.3589 4.03819 26.3707 4.05747 26.3876C4.05747 26.3876 4.05936 26.382 4.0662 26.4178C4.08882 26.4267 4.11145 26.4357 4.16267 26.4655C4.624 26.7224 5.08726 26.9761 5.54628 27.237C6.50079 27.7793 7.4499 28.3308 8.40718 28.8684C9.24102 29.3367 10.0872 29.784 10.9203 30.2536C11.8221 30.7619 12.7129 31.2886 13.6123 31.801C14.6689 32.4031 15.7309 32.9963 16.7874 33.5988C16.9566 33.6953 17.1071 33.7017 17.2721 33.6014C17.508 33.4581 17.746 33.3177 17.9867 33.1824C19.1702 32.5172 20.3567 31.857 21.5388 31.1894C22.9395 30.3984 24.3356 29.5995 25.7359 28.8077C27.1677 27.9981 28.6021 27.1928 30.0847 26.3861C30.0959 26.3589 30.107 26.3317 30.1188 26.3068C30.1188 26.3068 30.1167 26.3079 30.1514 26.2712C30.1586 26.1911 30.172 26.111 30.172 26.0309C30.173 21.3351 30.1732 16.6393 30.1708 11.9435C30.1707 11.849 30.1384 11.7546 30.1174 11.6603C30.1174 11.6603 30.1206 11.6583 30.1242 11.6172C30.1017 11.6062 30.0792 11.5952 30.0597 11.579Z" fill="#7C3AED"/>
<path d="M13.7681 25.9558C12.5919 25.8976 11.4143 25.8416 10.2969 25.4242C9.22035 25.0222 8.43871 24.3202 8.06064 23.2395C7.99116 23.0409 7.87217 22.9602 7.69659 22.8667C6.95089 22.4695 6.55282 21.8141 6.44167 21.0165C6.37491 20.5375 6.45423 20.0404 6.40746 19.5569C6.38209 19.2948 6.23613 19.0419 6.13413 18.7889C5.615 17.5013 5.07516 16.2213 4.57759 14.9258C4.27944 14.1495 4.64676 13.3342 5.44568 13.1183C5.96276 12.9785 6.49985 13.0488 6.90744 13.4166C7.09958 13.59 7.19555 13.8773 7.30185 14.1265C7.50959 14.6135 7.69217 15.1107 7.8885 15.6024C8.1121 16.1624 8.33935 16.721 8.56256 17.2741C8.8441 16.8271 9.11816 16.3716 9.41246 15.929C10.0159 15.0213 10.8058 14.2981 11.7108 13.6757C12.5663 13.0873 13.4847 12.6377 14.491 12.3802C15.0763 12.2304 15.6842 12.1652 16.3314 12.0665C16.8693 12.0689 17.3575 12.0666 17.8457 12.0644C18.6494 12.1311 19.4345 12.2995 20.1889 12.5663C21.1451 12.9046 22.0257 13.3895 22.8333 14.0006C23.4752 14.4862 24.0499 15.0377 24.5178 15.6811C24.8865 16.1879 25.1951 16.7365 25.5321 17.2692C25.705 16.8414 25.8908 16.3873 26.0721 15.9314C26.3398 15.2584 26.5961 14.5809 26.8728 13.9114C27.0651 13.4464 27.4226 13.1092 27.9327 13.067C28.7475 12.9996 29.1911 13.2756 29.4759 13.8805C29.6832 14.3207 29.5947 14.7364 29.4181 15.1561C29.2241 15.6174 29.0366 16.0813 28.8473 16.5444C28.6556 17.0135 28.4605 17.4813 28.2755 17.9529C28.1276 18.3301 28.0159 18.7224 27.8459 19.0894C27.6333 19.5486 27.6696 20.0292 27.7028 20.4969C27.731 20.8947 27.645 21.259 27.4986 21.6013C27.2945 22.0788 27.0568 22.572 26.527 22.7902C26.1277 22.9548 26.0373 23.2843 25.8807 23.6206C25.6476 24.121 25.3101 24.5657 24.834 24.8925C24.0452 25.4341 23.1568 25.6978 22.2117 25.7967C21.5522 25.8658 20.8901 25.9108 20.1871 25.9439C20.0914 25.9131 20.0375 25.8978 19.9837 25.8977C17.9883 25.8962 15.993 25.8955 13.9976 25.8985C13.9211 25.8986 13.8446 25.9358 13.7681 25.9558ZM13.5574 24.9039C15.7597 24.9082 17.962 24.9126 20.2129 24.9188C20.5963 24.901 20.9875 24.9244 21.3613 24.8564C22.0605 24.7292 22.7647 24.5942 23.4389 24.3789C24.2088 24.1331 24.7579 23.5938 25.0157 22.8376C25.2697 22.0924 25.3842 21.3192 25.2455 20.5305C25.1448 19.9575 25.0824 19.3733 24.9228 18.8161C24.6121 17.7311 24.0465 16.771 23.2958 15.9115C22.6268 15.1455 21.8434 14.5225 20.9365 14.0503C19.9947 13.5599 18.9986 13.2464 17.9281 13.1411C17.1299 13.0626 16.3357 13.072 15.5566 13.2183C14.609 13.3961 13.7117 13.7284 12.8762 14.2214C11.711 14.9089 10.754 15.7983 10.0527 16.9346C9.7543 17.4181 9.46217 17.921 9.27688 18.4516C8.99597 19.2561 8.83645 20.0978 8.82042 20.9545C8.81494 21.2476 8.86014 21.5413 8.87315 21.8351C8.89783 22.3925 9.03809 22.9208 9.33578 23.395C9.75471 24.0624 10.4195 24.4091 11.1655 24.5952C11.9345 24.787 12.7218 24.8897 13.5574 24.9039ZM27.3187 17.4677C27.3458 17.4031 27.374 17.339 27.3997 17.2739C27.7563 16.3717 28.1091 15.4682 28.4716 14.5683C28.5544 14.3628 28.5119 14.2112 28.3083 14.1368C28.0938 14.0586 27.9352 14.191 27.8572 14.3616C27.675 14.7599 27.5166 15.169 27.358 15.5773C27.1119 16.2107 26.8966 16.8567 26.6216 17.4777C26.4977 17.7574 26.4873 17.9215 26.7962 18.0421C26.8757 18.0731 26.939 18.1438 27.026 18.2084C27.1208 17.9629 27.2092 17.7341 27.3187 17.4677ZM6.27346 16.1582C6.53332 16.8404 6.79319 17.5226 7.05451 18.2087C7.25028 18.0656 7.42326 17.9392 7.59624 17.8128C7.48295 17.5265 7.37321 17.2469 7.26174 16.9679C6.91081 16.0897 6.56027 15.2112 6.20716 14.3338C6.11984 14.1169 5.97085 14.106 5.74611 14.1558C5.45935 14.2195 5.57091 14.4606 5.59743 14.5336C5.79242 15.0705 6.02897 15.5929 6.27346 16.1582Z" fill="#7C3AED"/>
<path d="M12.0697 21.3526C11.4783 21.2491 10.9499 21.0221 10.5371 20.5832C9.52953 19.5116 9.66747 17.7673 10.8793 16.9189C11.3183 16.6116 11.7807 16.4635 12.3529 16.4417C14.9806 16.4444 17.5586 16.4452 20.1365 16.4446C20.6058 16.4445 21.0751 16.4384 21.5444 16.435C22.5225 16.5232 23.2991 16.9491 23.7446 17.8147C24.0348 18.3786 24.0926 18.9978 23.8689 19.6148C23.5384 20.526 22.9498 21.1569 21.927 21.3154C21.875 21.3234 21.8254 21.3468 21.7347 21.3453C21.6407 21.32 21.5867 21.306 21.5326 21.306C18.4463 21.3043 15.3599 21.3035 12.2736 21.3053C12.2056 21.3054 12.1376 21.3362 12.0697 21.3526ZM16.8141 20.1177C16.9021 20.1329 16.9972 20.1771 17.077 20.1586C17.5751 20.0433 18.0114 19.8464 18.2161 19.3321C18.4317 18.7906 18.2818 18.3556 17.8608 17.976C17.5154 17.6645 16.9326 17.5843 16.4914 17.8014C16.0597 18.0139 15.7232 18.5659 15.7933 18.9884C15.8863 19.5487 16.1829 19.9534 16.8141 20.1177Z" fill="#7C3AED"/>
</svg>
